<svg id="logo"
    xmlns="http://www.w3.org/2000/svg" width="24" height="24" viewBox="0 0 24 24" class="icon icon-tabler" stroke-width="2" stroke="currentColor" fill="none" stroke-linecap="round" stroke-linejoin="round">
    <path d="m5.02,2.6l6.98,4.86v3.99c-.03-.08-.23-.34-1.5-.95-1.65-.8-3.16-1.6-3.16-1.6,0,0-2.34-1.46-2.88-1.71l7.55,5.39v2.23l-6.24-4.1v10.69H0V2.6h5.02Z" fill="none"/>
    <path d="m18.98,2.6l-6.98,4.86v3.99c.03-.08.23-.34,1.5-.95,1.65-.8,3.16-1.6,3.16-1.6,0,0,2.34-1.46,2.88-1.71l-7.55,5.39v2.23s6.24-4.1,6.24-4.1v10.69s5.76,0,5.76,0V2.6s-5.02,0-5.02,0Z" fill="none" />
</svg>

<svg id="a"
    xmlns="http://www.w3.org/2000/svg" viewBox="0 0 24 24">
    <path d="m19,2.6l-7,4.9L5,2.6H0v18.8h5.8v-10.7l6.2,4.1,6.2-4.1v10.7h5.8V2.6h-5Zm-7,10l-7.5-5.4c.5.2,2.9,1.7,2.9,1.7,0,0,1.5.8,3.2,1.6,1.3.6,1.5.9,1.5,1,0,0,.2-.3,1.5-1,1.7-.8,3.2-1.6,3.2-1.6,0,0,2.3-1.5,2.9-1.7l-7.5,5.4Z" style="fill:#fff;"/>
</svg>